<svg width="16" height="16" viewBox="0 0 16 16" fill="none" xmlns="http://www.w3.org/2000/svg">
<path d="M10.561 1.61L13.5 10.5C12.505 9.983 11.105 9.202 10 9.007L8 3.5L6 9.007C4.89 9.201 3.5 9.981 2.5 10.5L5.663 1.609C5.784 1.211 5.845 1.012 5.965 0.864C6.0701 0.734609 6.20589 0.633545 6.36 0.57C6.536 0.5 6.744 0.5 7.16 0.5H9.062C9.478 0.5 9.687 0.5 9.863 0.571C10.0174 0.634118 10.1535 0.73484 10.259 0.864C10.379 1.012 10.44 1.211 10.561 1.61Z" stroke="#CAD3F5" stroke-linecap="round" stroke-linejoin="round"/>
<path d="M10.4109 11.266C9.98088 11.631 9.11888 11.879 8.12788 11.879C6.91088 11.879 5.89088 11.505 5.61988 11C5.53868 11.2694 5.49856 11.5496 5.50088 11.831C5.50088 11.831 5.43788 12.869 6.16688 13.591C6.16688 13.217 6.47388 12.912 6.85288 12.912C7.50088 12.912 7.50088 13.473 7.49988 13.928V13.968C7.49988 14.659 7.92588 15.25 8.53188 15.5C8.43943 15.3099 8.39123 15.1014 8.39088 14.89C8.39088 14.232 8.78088 13.987 9.23588 13.702C9.59588 13.475 9.99688 13.223 10.2739 12.717C10.3943 12.4972 10.4686 12.2552 10.4922 12.0056C10.5157 11.7561 10.4881 11.5044 10.4109 11.266Z" stroke="#C6A0F6" stroke-linecap="round" stroke-linejoin="round"/>
</svg>
