<svg width="24" height="24" viewBox="0 0 24 24" fill="none" xmlns="http://www.w3.org/2000/svg">
<path d="M17 22C16.7167 22 16.4793 21.904 16.288 21.712C16.0967 21.52 16.0007 21.2827 16 21C15.9993 20.7173 16.0953 20.48 16.288 20.288C16.4807 20.096 16.718 20 17 20H20V18H17C16.7167 18 16.4793 17.904 16.288 17.712C16.0967 17.52 16.0007 17.2827 16 17C15.9993 16.7173 16.0953 16.48 16.288 16.288C16.4807 16.096 16.718 16 17 16H20V14H17C16.7167 14 16.4793 13.904 16.288 13.712C16.0967 13.52 16.0007 13.2827 16 13C15.9993 12.7173 16.0953 12.48 16.288 12.288C16.4807 12.096 16.718 12 17 12H20V10H17C16.7167 10 16.4793 9.904 16.288 9.712C16.0967 9.52 16.0007 9.28267 16 9C15.9993 8.71733 16.0953 8.48 16.288 8.288C16.4807 8.096 16.718 8 17 8H20V6H17C16.7167 6 16.4793 5.904 16.288 5.712C16.0967 5.52 16.0007 5.28267 16 5C15.9993 4.71733 16.0953 4.48 16.288 4.288C16.4807 4.096 16.718 4 17 4H21C21.55 4 22.021 4.196 22.413 4.588C22.805 4.98 23.0007 5.45067 23 6V20C23 20.55 22.8043 21.021 22.413 21.413C22.0217 21.805 21.5507 22.0007 21 22H17ZM5 22L1 11L6 8V2H10V8L15 11L11 22H5Z" fill="#D6BFF6"/>
</svg>
