<svg width="20" height="20" viewBox="0 0 20 20" fill="none" xmlns="http://www.w3.org/2000/svg">
<path d="M3.33341 17.5C2.87508 17.5 2.48286 17.3369 2.15675 17.0108C1.83064 16.6847 1.6673 16.2922 1.66675 15.8333V6.66667C1.66675 6.20834 1.83008 5.81612 2.15675 5.49C2.48341 5.16389 2.87564 5.00056 3.33341 5.00001H6.66675V3.33334C6.66675 2.87501 6.83008 2.48278 7.15675 2.15667C7.48341 1.83056 7.87564 1.66723 8.33341 1.66667H11.6667C12.1251 1.66667 12.5176 1.83001 12.8442 2.15667C13.1709 2.48334 13.334 2.87556 13.3334 3.33334V5.00001H16.6667C17.1251 5.00001 17.5176 5.16334 17.8442 5.49C18.1709 5.81667 18.334 6.20889 18.3334 6.66667V15.8333C18.3334 16.2917 18.1704 16.6842 17.8442 17.0108C17.5181 17.3375 17.1256 17.5006 16.6667 17.5H3.33341ZM3.33341 15.8333H16.6667V6.66667H3.33341V15.8333ZM8.33341 5.00001H11.6667V3.33334H8.33341V5.00001Z" fill="white"/>
</svg>
