<svg width="58" height="58" viewBox="0 0 58 58" fill="none" xmlns="http://www.w3.org/2000/svg">
<g clip-path="url(#clip0_566_2)">
<path d="M44.4062 0H13.5938C6.08613 0 0 6.08613 0 13.5938V44.4062C0 51.9139 6.08613 58 13.5938 58H44.4062C51.9139 58 58 51.9139 58 44.4062V13.5938C58 6.08613 51.9139 0 44.4062 0Z" fill="#94C747"/>
<path d="M51.6562 41.4466C50.9967 41.6965 50.2685 41.6961 49.6092 41.4454C48.95 41.1947 48.4054 40.7111 48.0786 40.0861C46.0253 37.0124 43.7578 34.0772 41.5785 31.0791L40.6335 29.8194C38.0385 33.2963 35.4434 36.6344 33.0752 40.0988C32.7667 40.6961 32.2516 41.1609 31.6259 41.4065C31.0002 41.6522 30.3065 41.662 29.674 41.4342L39.4117 28.3708L30.3542 16.5669C31.0062 16.3315 31.7194 16.3283 32.3735 16.5578C33.0276 16.7873 33.5825 17.2354 33.9445 17.8266C36.0481 20.9006 38.3788 23.8357 40.6965 26.9473C43.0272 23.8609 45.3324 20.913 47.4866 17.8644C47.7967 17.2768 48.3121 16.8237 48.9346 16.5914C49.5571 16.3591 50.2433 16.3639 50.8626 16.6047L47.3479 21.2658C45.7733 23.3443 44.2239 25.4355 42.5863 27.4637C42.4543 27.5818 42.3487 27.7265 42.2764 27.8882C42.2042 28.0499 42.1668 28.225 42.1668 28.4022C42.1668 28.5793 42.2042 28.7545 42.2764 28.9162C42.3487 29.0779 42.4543 29.2226 42.5863 29.3407C45.5971 33.3341 48.5825 37.34 51.6562 41.4466ZM6.34375 28.207C6.60837 26.9473 6.77195 25.5741 7.1374 24.2893C9.3167 16.542 18.1977 13.3169 24.3074 18.1166C27.8851 20.926 28.7796 24.9067 28.6033 29.3912H8.44761C8.12 37.4032 13.9021 42.2405 21.2966 39.7714C22.4962 39.3424 23.57 38.6213 24.4211 37.6734C25.2723 36.7255 25.8739 35.5805 26.1718 34.3419C26.5624 33.0822 27.1923 32.8681 28.389 33.2333C28.1918 34.7669 27.6496 36.2358 26.803 37.5297C25.9565 38.8236 24.8276 39.9087 23.5013 40.7035C21.31 41.9021 18.7957 42.3769 16.3181 42.0602C13.8406 41.7434 11.5266 40.6513 9.7073 38.9399C7.90737 36.9161 6.81903 34.3589 6.60837 31.6587C6.60837 31.2305 6.44457 30.8021 6.35644 30.399C6.3481 29.6684 6.34387 28.9377 6.34375 28.207ZM8.47276 27.6653H26.7011C26.5876 21.858 22.9218 17.7387 18.0341 17.7011C12.5921 17.6254 8.69955 21.6564 8.46007 27.6401L8.47276 27.6653Z" fill="white"/>
</g>
<defs>
<clipPath id="clip0_566_2">
<rect width="58" height="58" fill="white"/>
</clipPath>
</defs>
</svg>
