<svg width="22" height="22" viewBox="0 0 22 22" fill="none" xmlns="http://www.w3.org/2000/svg">
<path fill-rule="evenodd" clip-rule="evenodd" d="M7.94478 8.63217C7.63384 8.63217 7.32595 8.69341 7.03868 8.8124C6.75141 8.93139 6.49039 9.1058 6.27053 9.32567C6.05066 9.54553 5.87625 9.80655 5.75726 10.0938C5.63827 10.3811 5.57703 10.689 5.57703 10.9999C5.57703 11.3109 5.63827 11.6187 5.75726 11.906C5.87625 12.1933 6.05066 12.4543 6.27053 12.6742C6.49039 12.894 6.75141 13.0684 7.03868 13.1874C7.32595 13.3064 7.63384 13.3677 7.94478 13.3677H10.3125V8.63217H7.94478ZM10.3125 7.25717H7.94478C7.31669 7.25717 6.71433 7.00766 6.2702 6.56354C5.82608 6.11941 5.57657 5.51705 5.57657 4.88896C5.57657 4.26087 5.82608 3.65851 6.2702 3.21438C6.71433 2.77026 7.31669 2.52075 7.94478 2.52075H10.3125V7.25717ZM11.6875 2.52075V7.25717H14.0553C14.6753 7.24497 15.2658 6.9901 15.7 6.54731C16.1341 6.10451 16.3774 5.5091 16.3774 4.88896C16.3774 4.26882 16.1341 3.67341 15.7 3.23062C15.2658 2.78782 14.6753 2.53295 14.0553 2.52075H11.6875ZM14.0553 8.63125C13.4338 8.63117 12.8372 8.87547 12.3942 9.31141C11.9512 9.74735 11.6974 10.34 11.6875 10.9614V11.0375C11.6951 11.5041 11.8404 11.958 12.1051 12.3423C12.3699 12.7266 12.7423 13.0241 13.1755 13.1974C13.6088 13.3707 14.0836 13.4121 14.5404 13.3165C14.9971 13.2208 15.4154 12.9923 15.7427 12.6597C16.07 12.3271 16.2917 11.9052 16.38 11.447C16.4682 10.9887 16.4192 10.5146 16.2389 10.0842C16.0586 9.65382 15.7551 9.28628 15.3666 9.02777C14.9781 8.76926 14.5219 8.63131 14.0553 8.63125ZM7.94478 14.7427C7.47626 14.7425 7.01821 14.8813 6.62857 15.1414C6.23892 15.4016 5.93518 15.7714 5.75576 16.2043C5.57634 16.6371 5.52931 17.1133 5.6206 17.5729C5.71189 18.0324 5.93741 18.4546 6.26864 18.7859C6.59987 19.1173 7.02192 19.343 7.48142 19.4344C7.94092 19.5259 8.41723 19.479 8.8501 19.2998C9.28297 19.1205 9.65296 18.8169 9.91327 18.4274C10.1736 18.0378 10.3125 17.5799 10.3125 17.1113V14.7427H7.94478Z" fill="white"/>
</svg>
