<svg width="58" height="59" viewBox="0 0 58 59" fill="none" xmlns="http://www.w3.org/2000/svg">
<g clip-path="url(#clip0_511_317)">
<path d="M56.5213 26.6874L31.5469 1.71392C30.1096 0.275699 27.7769 0.275699 26.3373 1.71392L21.1518 6.90039L27.7302 13.4789C29.2595 12.9627 31.0122 13.3089 32.2307 14.5274C33.4555 15.7535 33.7989 17.5212 33.2701 19.0555L39.6103 25.396C41.1441 24.8672 42.9145 25.2089 44.1388 26.436C45.8516 28.1474 45.8516 30.9219 44.1388 32.6343C43.7318 33.0415 43.2485 33.3645 42.7166 33.5849C42.1846 33.8053 41.6145 33.9188 41.0387 33.9188C40.463 33.9188 39.8928 33.8053 39.3609 33.5849C38.829 33.3645 38.3457 33.0415 37.9387 32.6343C37.3273 32.0222 36.9105 31.2431 36.7408 30.3948C36.5711 29.5466 36.656 28.6671 36.9849 27.8669L31.0725 21.9546L31.0716 37.5153C31.5006 37.7265 31.8922 38.0063 32.2311 38.3436C33.943 40.0551 33.943 42.8287 32.2311 44.5437C30.5188 46.2552 27.7434 46.2552 26.0328 44.5437C24.3209 42.8291 24.3209 40.0555 26.0328 38.3436C26.4434 37.9333 26.9311 37.6084 27.4679 37.3875V21.6827C26.9305 21.4628 26.4425 21.1376 26.0328 20.7261C24.736 19.4302 24.4238 17.5271 25.089 15.9339L18.6034 9.44831L1.47888 26.5719C0.788012 27.263 0.399902 28.2002 0.399902 29.1774C0.399902 30.1546 0.788012 31.0918 1.47888 31.7828L26.4538 56.7564C27.892 58.1946 30.2238 58.1946 31.6643 56.7564L56.5218 31.8988C57.2125 31.2076 57.6005 30.2703 57.6004 29.2931C57.6003 28.3158 57.2122 27.3786 56.5213 26.6874Z" fill="#F34F29"/>
</g>
<defs>
<clipPath id="clip0_511_317">
<rect width="58" height="58" fill="white" transform="translate(0 0.234863)"/>
</clipPath>
</defs>
</svg>
