<svg width="32" height="32" viewBox="0 0 32 32" fill="none" xmlns="http://www.w3.org/2000/svg">
<path d="M9.36523 3.08001C10.367 3.41806 11.3197 3.887 12.1986 4.47468C13.4406 4.15677 14.7178 3.99729 15.9999 4.00001C17.3239 4.00001 18.6012 4.16534 19.7986 4.47334C20.6771 3.88624 21.6293 3.41774 22.6306 3.08001C23.5599 2.76401 24.8839 2.25201 25.6706 3.12268C26.2039 3.71468 26.3372 4.70668 26.4319 5.46401C26.5386 6.30935 26.5639 7.41068 26.2839 8.50401C27.3546 9.88668 27.9999 11.536 27.9999 13.3333C27.9999 16.056 26.5252 18.42 24.3426 20.0573C23.2916 20.8346 22.1267 21.4445 20.8892 21.8653C21.1746 22.5187 21.3332 23.2413 21.3332 24V28C21.3332 28.3536 21.1928 28.6928 20.9427 28.9428C20.6927 29.1929 20.3535 29.3333 19.9999 29.3333H11.9999C11.6463 29.3333 11.3071 29.1929 11.0571 28.9428C10.807 28.6928 10.6666 28.3536 10.6666 28V26.6787C9.39323 26.8347 8.32523 26.696 7.41723 26.3107C6.4679 25.908 5.80657 25.284 5.30923 24.6867C4.83723 24.1213 4.32257 22.8467 3.57857 22.5987C3.4124 22.5433 3.25876 22.4558 3.12642 22.3411C2.99407 22.2264 2.88562 22.0868 2.80725 21.9301C2.64896 21.6138 2.62282 21.2476 2.73457 20.912C2.84631 20.5764 3.08679 20.299 3.4031 20.1407C3.71941 19.9824 4.08564 19.9563 4.42123 20.068C5.30923 20.364 5.8879 21.004 6.2839 21.5187C6.9239 22.3453 7.4439 23.4253 8.45723 23.856C8.87457 24.0333 9.48657 24.1493 10.4439 24.0187L10.6666 23.9733C10.6696 23.2478 10.8207 22.5305 11.1106 21.8653C9.87306 21.4445 8.70816 20.8346 7.65723 20.0573C5.47457 18.42 3.9999 16.0573 3.9999 13.3333C3.9999 11.5387 4.6439 9.89068 5.7119 8.50935C5.4319 7.41601 5.4559 6.31201 5.56257 5.46534L5.56923 5.41468C5.66657 4.63868 5.7799 3.72534 6.3239 3.12268C7.11057 2.25201 8.4359 2.76534 9.3639 3.08134L9.36523 3.08001Z" fill="white" fill-opacity="0.9"/>
</svg>
