<svg width="32" height="32" viewBox="0 0 32 32" fill="none" xmlns="http://www.w3.org/2000/svg">
<path d="M26.6665 5.33334H5.33317C3.8665 5.33334 2.67984 6.53334 2.67984 8.00001L2.6665 24C2.6665 25.4667 3.8665 26.6667 5.33317 26.6667H26.6665C28.1332 26.6667 29.3332 25.4667 29.3332 24V8.00001C29.3332 6.53334 28.1332 5.33334 26.6665 5.33334ZM26.1332 11L16.7065 16.8933C16.2798 17.16 15.7198 17.16 15.2932 16.8933L5.8665 11C5.73281 10.925 5.61573 10.8236 5.52236 10.7019C5.42898 10.5803 5.36125 10.441 5.32327 10.2925C5.28529 10.144 5.27784 9.98926 5.30138 9.83775C5.32492 9.68625 5.37895 9.5411 5.46021 9.41108C5.54147 9.28106 5.64827 9.16888 5.77414 9.08134C5.90001 8.99379 6.04233 8.93269 6.1925 8.90174C6.34266 8.87079 6.49755 8.87063 6.64778 8.90127C6.79801 8.93192 6.94045 8.99272 7.0665 9.08001L15.9998 14.6667L24.9332 9.08001C25.0592 8.99272 25.2017 8.93192 25.3519 8.90127C25.5021 8.87063 25.657 8.87079 25.8072 8.90174C25.9573 8.93269 26.0997 8.99379 26.2255 9.08134C26.3514 9.16888 26.4582 9.28106 26.5395 9.41108C26.6207 9.5411 26.6748 9.68625 26.6983 9.83775C26.7218 9.98926 26.7144 10.144 26.6764 10.2925C26.6384 10.441 26.5707 10.5803 26.4773 10.7019C26.3839 10.8236 26.2669 10.925 26.1332 11Z" fill="white" fill-opacity="0.9"/>
</svg>
