<svg width="16" height="16" viewBox="0 0 16 16" fill="none" xmlns="http://www.w3.org/2000/svg">
<path fill-rule="evenodd" clip-rule="evenodd" d="M11.0049 5.35144C11.2055 5.93182 11.35 6.52432 11.3975 7.13844C11.4565 7.90032 11.4295 8.65682 11.2689 9.40619C11.2645 9.42682 11.2553 9.44619 11.2484 9.46619C11.198 9.46632 11.1466 9.46006 11.0974 9.46769C10.6813 9.53306 10.2655 9.60082 9.84977 9.66819C9.42002 9.73782 8.98965 9.80469 8.56065 9.87907C8.40865 9.90531 8.22052 9.87394 8.15915 10.0842C8.1574 10.0899 8.1399 10.0909 8.12977 10.0942L8.15052 8.83782L8.12939 5.80632L8.32965 5.77194C8.65715 5.71832 8.98465 5.66394 9.3124 5.61182C9.70352 5.54969 10.095 5.48932 10.4864 5.42869C10.659 5.40182 10.8319 5.37719 11.0049 5.35144Z" fill="#439934"/>
<path fill-rule="evenodd" clip-rule="evenodd" d="M7.71634 13.7568C7.50509 13.5752 7.28647 13.4016 7.08397 13.2106C5.99434 12.1828 5.19734 10.9732 4.80484 9.5148C4.69672 9.11343 4.62459 8.70555 4.60147 8.2908C4.58522 8.00055 4.56172 7.70768 4.58222 7.41893C4.63684 6.65093 4.74784 5.8903 4.97309 5.15055L4.98547 5.1333C5.00734 5.16243 5.03884 5.18818 5.04997 5.22105C5.2698 5.86855 5.48822 6.51651 5.70522 7.16493C6.38747 9.20243 7.06884 11.2404 7.75222 13.2774C7.76559 13.3172 7.80022 13.3498 7.82509 13.3857L7.71634 13.7568Z" fill="#45A538"/>
<path fill-rule="evenodd" clip-rule="evenodd" d="M11.0046 5.35154C10.8316 5.37729 10.6586 5.40192 10.486 5.42854C10.0946 5.48917 9.70313 5.54954 9.312 5.61167C8.98425 5.66379 8.65675 5.71817 8.32925 5.77179L8.129 5.80617L8.1275 5.67554C8.12088 5.56817 8.1095 5.46092 8.10825 5.35354C8.09963 4.66879 8.09425 3.98404 8.08575 3.29929C8.0805 2.87067 8.07263 2.44217 8.06388 2.01367C8.0585 1.74742 8.05275 1.48104 8.04075 1.21517C8.03425 1.07229 8.01125 0.930167 8.00188 0.787292C7.99663 0.705167 8.00388 0.622417 8.0055 0.539917C8.10763 0.737792 8.2075 0.937167 8.3125 1.13354C8.47838 1.44404 8.74263 1.67279 8.9805 1.92242C9.92088 2.90892 10.5885 4.05592 11.0046 5.35154Z" fill="#46A037"/>
<path fill-rule="evenodd" clip-rule="evenodd" d="M8.12968 10.0941C8.1398 10.0908 8.15743 10.0898 8.15905 10.0841C8.22043 9.87384 8.40855 9.90522 8.56055 9.87897C8.98955 9.80472 9.41993 9.73772 9.84968 9.66809C10.2654 9.60072 10.6812 9.53297 11.0973 9.46759C11.1466 9.45984 11.1979 9.46622 11.2483 9.46609C11.1706 9.74359 11.1093 10.0271 11.0107 10.297C10.8987 10.6031 10.7632 10.9018 10.6193 11.1947C10.4041 11.6316 10.1375 12.0413 9.82518 12.4151C9.5853 12.7036 9.31793 12.9702 9.04993 13.2336C8.9018 13.3792 8.72718 13.4978 8.56468 13.6287L8.52255 13.6L8.3708 13.4702L8.2138 13.1261C8.10656 12.7247 8.04805 12.3118 8.03955 11.8963L8.04243 11.8262L8.0638 11.523C8.07093 11.4195 8.08043 11.3161 8.0848 11.2123C8.10093 10.8396 8.11493 10.4668 8.12968 10.0941Z" fill="#409433"/>
<path fill-rule="evenodd" clip-rule="evenodd" d="M8.12929 10.0941C8.11454 10.4668 8.10054 10.8396 8.08467 11.2125C8.08029 11.3162 8.07079 11.4196 8.06367 11.5231L7.96804 11.5592C7.75567 10.934 7.54317 10.3153 7.33529 9.69508C6.99154 8.66895 6.65192 7.6412 6.30867 6.61483C6.03143 5.78639 5.75226 4.95859 5.47117 4.13145C5.45804 4.0927 5.42029 4.06245 5.39404 4.0282L6.00604 2.90295C6.02704 2.93945 6.05479 2.97358 6.06804 3.01283C6.35149 3.85059 6.63349 4.68884 6.91404 5.52758C7.27854 6.61883 7.64079 7.71095 8.00504 8.80233C8.01954 8.84595 8.04354 8.8862 8.06642 8.93508L8.15017 8.83758L8.12929 10.0941Z" fill="#4FAA41"/>
<path fill-rule="evenodd" clip-rule="evenodd" d="M5.39435 4.02832C5.4206 4.06257 5.45823 4.09282 5.47148 4.13157C5.75257 4.95871 6.03174 5.7865 6.30898 6.61494C6.65223 7.64132 6.99185 8.66907 7.3356 9.69519C7.54335 10.3153 7.75585 10.9341 7.96835 11.5593L8.06398 11.5232L8.0426 11.8264L8.02323 11.8963C7.98998 12.2283 7.96198 12.5611 7.92148 12.8923C7.9011 13.0583 7.85785 13.2213 7.82498 13.3857C7.80023 13.3498 7.76548 13.3172 7.7521 13.2774C7.06873 11.2403 6.38735 9.20245 5.7051 7.16495C5.48805 6.51653 5.26963 5.86857 5.04985 5.22107C5.03873 5.1882 5.00735 5.16245 4.98535 5.13332L5.39435 4.02832Z" fill="#4AA73C"/>
<path fill-rule="evenodd" clip-rule="evenodd" d="M8.15047 8.83772L8.06672 8.93522C8.04385 8.88635 8.01985 8.84597 8.00535 8.80247C7.64122 7.7111 7.27885 6.61897 6.91435 5.52772C6.63379 4.68899 6.35179 3.85073 6.06835 3.01297C6.05522 2.97372 6.02747 2.93947 6.00635 2.9031L6.76322 1.90747C6.7871 1.93935 6.8211 1.96772 6.83347 2.0036C7.04347 2.61876 7.25193 3.23451 7.45885 3.85085C7.65222 4.42635 7.84272 5.00272 8.03835 5.57747C8.05147 5.61597 8.0971 5.64322 8.1276 5.67572L8.1291 5.80635C8.13635 6.81668 8.14347 7.82714 8.15047 8.83772Z" fill="#57AE47"/>
<path fill-rule="evenodd" clip-rule="evenodd" d="M8.12756 5.67546C8.09706 5.64296 8.05143 5.61571 8.03831 5.57721C7.84268 5.00246 7.65218 4.42609 7.45881 3.85059C7.25189 3.23434 7.04343 2.61859 6.83343 2.00334C6.82106 1.96746 6.78706 1.93909 6.76318 1.90721C7.00931 1.66621 7.24781 1.41659 7.50381 1.18671C7.73143 0.982465 7.91443 0.763465 7.92281 0.440715C7.92318 0.42734 7.93018 0.413965 7.94093 0.376465L8.00581 0.539715C8.00418 0.62234 7.99681 0.704965 8.00218 0.78709C8.01156 0.929965 8.03456 1.07209 8.04106 1.21496C8.05306 1.48084 8.05881 1.74721 8.06418 2.01346C8.07281 2.44196 8.08068 2.87046 8.08606 3.29909C8.09443 3.98384 8.09993 4.66859 8.10856 5.35334C8.10956 5.46096 8.12081 5.56809 8.12756 5.67546Z" fill="#60B24F"/>
<path fill-rule="evenodd" clip-rule="evenodd" d="M7.82457 13.3856C7.85745 13.2213 7.9007 13.0581 7.92107 12.8923C7.9617 12.5611 7.98957 12.2283 8.02282 11.8963L8.03107 11.895L8.03932 11.8964C8.04782 12.3118 8.10633 12.7247 8.21357 13.1261C8.19157 13.1551 8.16045 13.181 8.14882 13.2138C8.05795 13.47 7.97232 13.7283 7.88095 13.9845C7.86845 14.0195 7.8337 14.0468 7.8092 14.0775L7.71582 13.7568L7.82457 13.3856Z" fill="#A9AA88"/>
<path fill-rule="evenodd" clip-rule="evenodd" d="M7.80957 14.0776C7.83407 14.0468 7.86894 14.0196 7.88132 13.9846C7.97269 13.7283 8.05845 13.4702 8.1492 13.2138C8.16082 13.1811 8.19182 13.1552 8.21394 13.1262L8.37082 13.4705C8.33982 13.5145 8.29707 13.5541 8.27982 13.6031L7.97932 14.4855C7.96695 14.5208 7.9247 14.5458 7.89645 14.5757L7.80957 14.0776Z" fill="#B6B598"/>
<path fill-rule="evenodd" clip-rule="evenodd" d="M7.89648 14.5756C7.92486 14.5458 7.96698 14.5207 7.97936 14.4853L8.27986 13.603C8.29698 13.5541 8.33986 13.5143 8.37086 13.4703L8.52273 13.6C8.44936 13.6725 8.40861 13.7562 8.43311 13.8621L8.38698 14.0131C8.36598 14.039 8.33561 14.0615 8.32523 14.0911C8.22036 14.3915 8.12023 14.6935 8.01461 14.9938C8.00123 15.032 7.96411 15.0618 7.93786 15.0953C7.92419 14.9221 7.9104 14.7488 7.89648 14.5756Z" fill="#C2C1A7"/>
<path fill-rule="evenodd" clip-rule="evenodd" d="M7.93785 15.0954C7.96397 15.0618 8.0011 15.0319 8.0146 14.9939C8.12022 14.6937 8.22035 14.3917 8.32522 14.0912C8.3356 14.0617 8.36585 14.0391 8.38697 14.0132L8.32335 14.7063C8.30635 14.7259 8.28172 14.7431 8.2736 14.7659C8.20172 14.9677 8.13397 15.1709 8.06185 15.3727C8.04697 15.4143 8.01847 15.4511 7.99622 15.4899C7.97647 15.4641 7.9411 15.4391 7.93947 15.4121C7.9331 15.3069 7.93747 15.2011 7.93785 15.0954Z" fill="#CECDB7"/>
<path fill-rule="evenodd" clip-rule="evenodd" d="M7.99609 15.4899C8.01834 15.4509 8.04684 15.4142 8.06172 15.3727C8.13397 15.171 8.20159 14.9678 8.27347 14.7659C8.28159 14.743 8.30634 14.726 8.32322 14.7063L8.32472 15.1613L8.17247 15.5518L7.99609 15.4899Z" fill="#DBDAC7"/>
<path fill-rule="evenodd" clip-rule="evenodd" d="M8.17236 15.5519L8.32461 15.1614L8.35599 15.6234L8.17236 15.5519Z" fill="#EBE9DC"/>
<path fill-rule="evenodd" clip-rule="evenodd" d="M8.43293 13.8622C8.40843 13.7563 8.44905 13.6725 8.52255 13.6001L8.56468 13.6288L8.43293 13.8622Z" fill="#CECDB7"/>
<path fill-rule="evenodd" clip-rule="evenodd" d="M8.03945 11.8965L8.0312 11.8952L8.02295 11.8964L8.04232 11.8265L8.03945 11.8965Z" fill="#4FAA41"/>
</svg>
