<svg width="58" height="59" viewBox="0 0 58 59" fill="none" xmlns="http://www.w3.org/2000/svg">
<g clip-path="url(#clip0_511_309)">
<path d="M44.4062 0.234863H13.5938C6.08613 0.234863 0 6.32099 0 13.8286V44.6411C0 52.1487 6.08613 58.2349 13.5938 58.2349H44.4062C51.9139 58.2349 58 52.1487 58 44.6411V13.8286C58 6.32099 51.9139 0.234863 44.4062 0.234863Z" fill="#4479A1"/>
<mask id="mask0_511_309" style="mask-type:luminance" maskUnits="userSpaceOnUse" x="8" y="8" width="42" height="42">
<path d="M8.60938 8.84424H49.3906V49.6255H8.60938V8.84424Z" fill="white"/>
</mask>
<g mask="url(#mask0_511_309)">
<path fill-rule="evenodd" clip-rule="evenodd" d="M46.1737 40.6106C43.9557 40.549 42.2349 40.7762 40.7929 41.3829C40.3776 41.5497 39.7113 41.5497 39.6564 42.0724C39.8785 42.2917 39.9052 42.6506 40.0998 42.9546C40.4322 43.5063 41.0154 44.2494 41.5419 44.635L43.3168 45.9033C44.3984 46.5642 45.6186 46.9505 46.6724 47.612C47.2827 47.9981 47.8927 48.4943 48.503 48.9082C48.8139 49.1287 49.0021 49.4878 49.3907 49.6248V49.5415C49.1968 49.2943 49.1408 48.9361 48.9475 48.6592L48.1145 47.8604C47.3108 46.7855 46.3117 45.8476 45.2301 45.0766C44.3424 44.4701 42.4017 43.6433 42.041 42.624L41.9864 42.5622C42.5956 42.5006 43.3168 42.286 43.8997 42.1206C44.8434 41.8734 45.7025 41.9278 46.6724 41.68L48.0046 41.2939V41.0467C47.5052 40.5508 47.1448 39.889 46.6182 39.4209C45.204 38.2081 43.6498 37.0225 42.041 36.0304C41.1814 35.4794 40.0717 35.1203 39.1566 34.6527C38.8229 34.4871 38.269 34.4044 38.075 34.1289C37.5745 33.5235 37.2979 32.7233 36.9375 32.0062L34.6634 27.2103C34.1643 26.1353 33.8585 25.0602 33.2492 24.0681C30.3921 19.3821 27.2852 16.5435 22.5147 13.7591C21.4891 13.1802 20.2688 12.9312 18.9713 12.6285L16.8914 12.5175C16.4469 12.3247 16.0035 11.8007 15.6152 11.5524C14.0343 10.56 9.95703 8.41039 8.79114 11.2436C8.04235 13.035 9.90107 14.7988 10.532 15.7089C11.0044 16.3428 11.6137 17.0592 11.9474 17.776C12.1338 18.2443 12.1961 18.741 12.3908 19.2371C12.8339 20.4497 13.2503 21.8009 13.8328 22.9315C14.1437 23.5103 14.4702 24.1175 14.8585 24.6409C15.0805 24.9497 15.4691 25.082 15.5518 25.5779C15.1632 26.1296 15.1365 26.9557 14.9144 27.6458C13.9155 30.7606 14.3041 34.6194 15.7183 36.9126C16.1628 37.6014 17.2102 39.118 18.6314 38.5387C19.8796 38.0425 19.6011 36.4715 19.9616 35.0931C20.0454 34.7628 19.9897 34.5421 20.1555 34.321V34.3828L21.2931 36.6704C22.1529 38.021 23.6511 39.427 24.8986 40.3648C25.5638 40.8609 26.091 41.716 26.9227 42.0187V41.9353H26.8681C26.7014 41.6881 26.4515 41.5769 26.2297 41.3841C25.7305 40.8881 25.1759 40.2814 24.7874 39.7304C23.6231 38.187 22.5974 36.4776 21.6816 34.7138C21.2374 33.8595 20.8488 32.9222 20.4895 32.0678C20.3216 31.7368 20.3216 31.24 20.045 31.0757C19.6283 31.6811 19.0193 32.2062 18.7128 32.9501C18.1856 34.135 18.131 35.5961 17.937 37.1122C17.8251 37.1399 17.8747 37.1122 17.8251 37.1739C16.9386 36.9541 16.6327 36.0433 16.3003 35.2723C15.4684 33.3153 15.3291 30.1731 16.0502 27.9127C16.2441 27.3338 17.0772 25.5145 16.7446 24.9633C16.577 24.4395 16.0235 24.1368 15.7176 23.7228C15.3572 23.199 14.97 22.5379 14.7201 21.9591C14.0549 20.4146 13.7223 18.7063 13.0004 17.1627C12.6667 16.4459 12.0849 15.7014 11.613 15.0405C11.0858 14.296 10.5046 13.772 10.0882 12.8904C9.94956 12.5816 9.75562 12.0911 9.97742 11.7599C10.0323 11.5394 10.1439 11.4511 10.3648 11.4017C10.7251 11.0927 11.7523 11.4844 12.1128 11.6486C13.1384 12.0626 13.9982 12.4482 14.858 13.0264C15.2466 13.3019 15.663 13.8259 16.1621 13.9643H16.7453C17.633 14.1569 18.6308 14.026 19.4618 14.2731C20.9322 14.7426 22.263 15.4309 23.4565 16.1758C27.0895 18.4636 30.0858 21.7162 32.1096 25.6033C32.4422 26.2372 32.5809 26.8161 32.8867 27.4777C33.4699 28.8289 34.1911 30.2066 34.7722 31.5304C35.3554 32.8259 35.9098 34.1499 36.7417 35.2247C37.1581 35.8036 38.8216 36.1063 39.5701 36.4097C40.1252 36.6568 40.9843 36.8793 41.4848 37.182C42.4271 37.7609 43.3702 38.4224 44.2572 39.0564C44.7004 39.3862 46.0881 40.0757 46.1706 40.6255L46.1737 40.6106ZM17.889 16.6577C17.5059 16.6544 17.124 16.7007 16.7528 16.7955V16.8573H16.8074C17.0294 17.2984 17.418 17.6018 17.695 17.9879L18.3335 19.311L18.3883 19.2494C18.7767 18.9739 18.9713 18.5327 18.9713 17.8719C18.8048 17.6791 18.7773 17.4856 18.6387 17.2928C18.4722 17.0173 18.1117 16.8788 17.889 16.6591V16.6577Z" fill="white"/>
</g>
</g>
<defs>
<clipPath id="clip0_511_309">
<rect width="58" height="58" fill="white" transform="translate(0 0.234863)"/>
</clipPath>
</defs>
</svg>
