<svg width="17" height="17" viewBox="0 0 17 17" fill="none" xmlns="http://www.w3.org/2000/svg">
<g clip-path="url(#clip0_511_45)">
<path d="M11.3448 11.6147C11.4245 11.0947 11.6436 10.6724 12.1755 10.4681C12.3837 10.3885 12.564 10.243 12.7692 10.1514C13.0023 10.0468 13.2393 9.94719 13.4854 9.88244C13.6716 9.83264 13.845 9.91631 13.9555 10.0797C14.0601 10.2331 13.9844 10.3775 13.8968 10.506C13.7981 10.6504 13.6886 10.7879 13.578 10.9234C13.3947 11.1485 13.2005 11.3646 13.0222 11.5928C12.8519 11.8109 12.7064 12.053 12.7313 12.3418C12.7861 12.9753 13.073 13.5003 13.5352 13.9276C13.586 13.9734 13.6756 14.0063 13.7414 14.0003C14.0362 13.9685 14.3042 13.8569 14.5203 13.6507C14.7683 13.4146 14.7305 13.1367 14.4337 12.9644C14.3629 12.9236 14.2892 12.8857 14.2245 12.8359C14.0432 12.6994 13.9824 12.4663 14.081 12.2641C14.1279 12.1665 14.1806 12.0609 14.2583 11.9902C14.6379 11.6446 15.0104 11.2879 15.4168 10.9732C16.402 10.2082 16.908 9.19617 16.9857 7.97094C17.0734 6.61024 16.7576 5.34022 16.0394 4.17775C15.7675 3.73648 15.4507 3.31609 14.9646 3.09798C14.6339 2.94956 14.2714 2.86589 13.9177 2.77326C12.9445 2.51726 11.9624 2.32501 10.9493 2.49634C10.0767 2.64277 9.43821 3.09201 9.14536 3.94964C8.95311 4.51044 8.90729 5.09017 8.96706 5.68388C9.0846 6.85033 9.94622 7.89324 11.0698 8.20203C11.5569 8.33551 11.8229 8.2608 12.1157 7.85539C12.3259 7.56354 12.5002 7.24578 12.6885 6.93796C12.7164 6.89214 12.7363 6.83934 12.7602 6.79054C12.7831 6.74173 12.808 6.69491 12.8319 6.6461C12.7612 7.15212 12.6437 7.63924 12.3678 8.0735C12.2183 8.30958 12.0191 8.48389 11.7273 8.50979C10.6535 8.60641 9.747 8.2538 9.10352 7.39015C8.38335 6.42391 8.22494 5.31227 8.43315 4.14186C8.47399 3.91076 8.54272 3.68465 8.59153 3.45455C8.6244 3.30613 8.56563 3.19656 8.41921 3.14477C8.35147 3.12186 8.28175 3.10293 8.21401 3.08898C7.33542 2.89973 6.44691 2.83697 5.55142 2.92762C4.53537 3.02922 3.57414 3.30813 2.71451 3.87294C1.36876 4.75847 0.535027 6.01856 0.0818024 7.54262C0.0160618 7.76375 0.0060997 8.0058 0.000123978 8.23892C-0.00386047 8.39431 0.0957489 8.43515 0.214285 8.33754C0.344772 8.23095 0.464304 8.10943 0.576862 7.98392C0.681452 7.86539 0.765123 7.72992 0.866726 7.60541C0.945417 7.50779 1.01415 7.52273 1.052 7.64425C1.0759 7.71797 1.09682 7.79068 1.11774 7.86439C1.35282 8.7031 1.72337 9.4681 2.32401 10.1126C2.40768 10.2033 2.48239 10.3377 2.49235 10.4573C2.51825 10.788 2.53718 11.1256 2.5053 11.4553C2.43956 12.1636 2.33696 12.8688 2.25727 13.5761C2.21245 13.9755 2.34094 14.2106 2.71647 14.3491C2.98044 14.4457 3.26333 14.5164 3.54223 14.5363C3.98649 14.5672 4.43473 14.5453 4.88098 14.5453C4.89294 14.0472 4.8501 13.5581 5.31827 13.2912C5.22762 12.9216 5.12303 12.571 5.06028 12.2124C5.00848 11.9146 5.05231 11.6217 5.26149 11.3777C5.45772 11.1476 5.70376 11.0848 5.92891 11.2163C6.60725 11.6118 7.31251 11.6138 8.0307 11.3548C8.3604 11.2352 8.5905 11.303 8.77282 11.6038C8.96905 11.9275 9.05173 12.2911 9.02981 12.6587C9.00192 13.1219 8.92124 13.5801 8.85948 14.0413C8.82561 14.2993 8.8545 14.366 9.1105 14.4317C9.67927 14.5762 10.258 14.5921 10.8397 14.5453C10.8706 14.5423 10.9015 14.5294 10.9214 14.5244C10.9503 14.0413 10.8995 13.5392 11.4753 13.2822C11.2203 12.7413 11.2551 12.1805 11.3428 11.6197L11.3448 11.6147V11.6147ZM14.7833 9.71912C14.6986 9.63943 14.6309 9.51492 14.607 9.40037C14.5472 9.11349 14.7624 8.729 15.0114 8.62242C15.1439 8.56464 15.2595 8.58556 15.3531 8.69115C15.5812 8.94914 15.8063 9.21011 16.0305 9.47212C16.0683 9.51694 16.1022 9.56974 16.1291 9.62253C16.2187 9.79485 16.1659 9.92036 15.9747 9.96718C15.8591 9.99606 15.7396 10.002 15.6211 10.019C15.3123 9.98909 15.0134 9.93729 14.7834 9.72015L14.7833 9.71912ZM14.7574 6.85133C14.7584 6.64614 14.9297 6.47481 15.132 6.47381C15.3401 6.47282 15.5194 6.65908 15.5125 6.86428C15.5035 7.07047 15.3322 7.23582 15.127 7.23184C14.9198 7.22885 14.7544 7.05951 14.7564 6.85233L14.7574 6.85133Z" fill="#787CB4"/>
</g>
<defs>
<clipPath id="clip0_511_45">
<rect width="17" height="17" fill="white" transform="matrix(-1 0 0 1 17 0)"/>
</clipPath>
</defs>
</svg>
