<svg width="30" height="30" viewBox="0 0 30 30" fill="none" xmlns="http://www.w3.org/2000/svg">
<path d="M15 2.5C16.6415 2.5 18.267 2.82332 19.7835 3.45151C21.3001 4.07969 22.6781 5.00043 23.8388 6.16117C24.9996 7.3219 25.9203 8.69989 26.5485 10.2165C27.1767 11.733 27.5 13.3585 27.5 15C27.5 18.3152 26.183 21.4946 23.8388 23.8388C21.4946 26.183 18.3152 27.5 15 27.5C13.3585 27.5 11.733 27.1767 10.2165 26.5485C8.69989 25.9203 7.3219 24.9996 6.16117 23.8388C3.81696 21.4946 2.5 18.3152 2.5 15C2.5 11.6848 3.81696 8.50537 6.16117 6.16117C8.50537 3.81696 11.6848 2.5 15 2.5ZM15 5C9.9 5 5.6875 8.8125 5.075 13.75H10.1625C10.7125 11.5875 12.675 10 15 10C17.325 10 19.2875 11.5875 19.8375 13.75H24.925C24.3125 8.8125 20.1 5 15 5ZM15 25C20.1 25 24.3125 21.1875 24.925 16.25H19.8375C19.2875 18.4125 17.325 20 15 20C12.675 20 10.7125 18.4125 10.1625 16.25H5.075C5.6875 21.1875 9.9 25 15 25ZM15 12.5C14.337 12.5 13.7011 12.7634 13.2322 13.2322C12.7634 13.7011 12.5 14.337 12.5 15C12.5 15.663 12.7634 16.2989 13.2322 16.7678C13.7011 17.2366 14.337 17.5 15 17.5C15.663 17.5 16.2989 17.2366 16.7678 16.7678C17.2366 16.2989 17.5 15.663 17.5 15C17.5 14.337 17.2366 13.7011 16.7678 13.2322C16.2989 12.7634 15.663 12.5 15 12.5Z" fill="#D6BFF6"/>
</svg>
