<svg width="20" height="20" viewBox="0 0 20 20" fill="none" xmlns="http://www.w3.org/2000/svg">
<path d="M3.33341 16.6667C2.87508 16.6667 2.48286 16.5036 2.15675 16.1775C1.83064 15.8514 1.6673 15.4589 1.66675 15V4.99999C1.66675 4.54166 1.83008 4.14944 2.15675 3.82333C2.48341 3.49722 2.87564 3.33388 3.33341 3.33333H8.33341L10.0001 4.99999H16.6667C17.1251 4.99999 17.5176 5.16333 17.8442 5.48999C18.1709 5.81666 18.334 6.20888 18.3334 6.66666V15C18.3334 15.4583 18.1704 15.8508 17.8442 16.1775C17.5181 16.5042 17.1256 16.6672 16.6667 16.6667H3.33341ZM3.33341 15H16.6667V6.66666H9.31258L7.64591 4.99999H3.33341V15Z" fill="white"/>
</svg>
