<svg width="63" height="56" viewBox="0 0 63 56" fill="none" xmlns="http://www.w3.org/2000/svg">
<g clip-path="url(#clip0_511_296)">
<path d="M51.7985 18.0432C51.1281 17.8178 50.4519 17.6089 49.7707 17.4168C49.8852 16.9584 49.9905 16.5057 50.084 16.0608C51.6191 8.7562 50.6156 2.87144 47.1877 0.9339C43.9012 -0.923556 38.5262 1.01326 33.0979 5.64412C32.5629 6.10131 32.0398 6.57169 31.529 7.05482C31.1871 6.73357 30.8392 6.41856 30.4854 6.10993C24.7962 1.15848 19.0937 -0.928381 15.6695 1.01471C12.3859 2.87796 11.4136 8.41004 12.7956 15.3328C12.9331 16.0184 13.0884 16.7005 13.2613 17.3784C12.4541 17.6032 11.6752 17.8425 10.9298 18.0973C4.25964 20.3769 0 23.9492 0 27.6547C0 31.4818 4.57291 35.3205 11.5201 37.6481C12.0834 37.836 12.6513 38.0101 13.2234 38.1703C13.0376 38.9005 12.8727 39.6356 12.7287 40.3747C11.4111 47.1773 12.44 52.5787 15.7148 54.4301C19.0971 56.3421 24.774 54.377 30.3015 49.6405C30.7497 49.2554 31.1881 48.8594 31.6162 48.4529C32.1693 48.9761 32.7371 49.484 33.3191 49.9761C38.6736 54.4923 43.9617 56.316 47.2333 54.4595C50.6124 52.542 51.7107 46.7395 50.2848 39.68C50.1725 39.1269 50.0465 38.5766 49.9071 38.0295C50.3057 37.9137 50.697 37.7945 51.0785 37.6705C58.3008 35.3251 63 31.533 63 27.6547C63 23.9357 58.6028 20.3393 51.7985 18.0432ZM50.2322 35.1666C49.8873 35.2782 49.5346 35.3863 49.174 35.491C48.3766 33.0168 47.3007 30.3859 45.9838 27.6675C47.2404 25.014 48.275 22.4167 49.0499 19.9586C49.6944 20.1414 50.3198 20.3342 50.9227 20.5375C56.7527 22.505 60.3087 25.4135 60.3087 27.6547C60.3087 30.0419 56.4682 33.141 50.2322 35.1666ZM47.6447 40.1923C48.2752 43.3138 48.3651 46.1362 47.9474 48.3427C47.5724 50.3254 46.8179 51.647 45.8847 52.1765C43.8994 53.3031 39.6536 51.8388 35.0745 47.9763C34.5332 47.5187 34.005 47.0465 33.4904 46.5603C35.2657 44.6572 37.0398 42.4449 38.7713 39.9878C41.817 39.7229 44.6943 39.2896 47.3036 38.6984C47.4324 39.2069 47.5461 39.7049 47.6447 40.1923ZM21.4781 51.9819C19.5384 52.6532 17.9934 52.6725 17.0595 52.1447C15.0723 51.0213 14.2461 46.6843 15.373 40.8668C15.5069 40.1794 15.6603 39.4957 15.8329 38.8166C18.4135 39.3763 21.2699 39.7786 24.3227 40.0213C26.066 42.4256 27.8913 44.6355 29.7308 46.5706C29.3399 46.9414 28.9397 47.3027 28.5306 47.6542C26.0862 49.7486 23.6368 51.2345 21.4781 51.9819ZM12.3908 35.1519C9.31883 34.1225 6.78185 32.7849 5.04295 31.3253C3.48026 30.0137 2.69153 28.7113 2.69153 27.6547C2.69153 25.406 6.11149 22.5378 11.8157 20.5884C12.508 20.352 13.2325 20.1289 13.9843 19.9195C14.7728 22.4331 15.8068 25.0613 17.0548 27.7189C15.7906 30.4158 14.7418 33.086 13.9456 35.6293C13.4235 35.4826 12.905 35.3234 12.3908 35.1519ZM15.437 14.826C14.253 8.89491 15.0393 4.42085 17.0181 3.29794C19.1257 2.10193 23.7862 3.80717 28.6985 8.08269C29.0188 8.36212 29.3339 8.64721 29.6437 8.93785C27.8133 10.8645 26.0047 13.058 24.2769 15.4481C21.3139 15.7173 18.4777 16.1496 15.8701 16.7288C15.7094 16.0983 15.565 15.4636 15.437 14.826ZM42.6124 21.404C41.9964 20.3612 41.3577 19.3315 40.6965 18.3156C42.7066 18.5648 44.6325 18.8955 46.4411 19.2998C45.8982 21.0058 45.2215 22.7892 44.4248 24.6177C43.8426 23.5347 43.2383 22.4633 42.6124 21.404ZM31.5303 10.8235C32.7716 12.1418 34.0148 13.6136 35.2377 15.2105C32.757 15.0956 30.2723 15.0952 27.7916 15.2091C29.0157 13.6268 30.2695 12.157 31.5303 10.8235ZM20.3771 21.4219C19.7589 22.4726 19.1659 23.5374 18.5985 24.6153C17.815 22.7933 17.1444 21.0017 16.5968 19.2716C18.3943 18.8774 20.3111 18.5551 22.3084 18.3105C21.6399 19.3326 20.9959 20.3702 20.3771 21.4219ZM22.3657 37.1864C20.3022 36.9606 18.3566 36.655 16.5596 36.2714C17.1158 34.5104 17.8012 32.6807 18.6017 30.8196C19.1714 31.8983 19.7669 32.9637 20.3876 34.015C21.026 35.0957 21.687 36.1542 22.3657 37.1864ZM31.6046 44.6717C30.3288 43.3227 29.0565 41.8303 27.814 40.2251C29.0204 40.2715 30.2501 40.2951 31.5 40.2951C32.7841 40.2951 34.0535 40.2669 35.3029 40.2123C34.0761 41.8464 32.8375 43.3411 31.6046 44.6717ZM44.4502 30.7246C45.2923 32.6062 46.0021 34.4263 46.5656 36.1571C44.7391 36.5657 42.7669 36.8947 40.6889 37.1391C41.3548 36.1044 41.9996 35.0568 42.6229 33.9969C43.2567 32.9196 43.866 31.8285 44.4502 30.7246ZM40.2917 32.6788C39.3373 34.3038 38.3294 35.8979 37.2694 37.4587C35.3493 37.5921 33.4249 37.6583 31.5 37.6573C29.5394 37.6573 27.6324 37.5974 25.796 37.4807C24.7083 35.9235 23.6811 34.3266 22.7167 32.6933C21.7566 31.0687 20.8602 29.4089 20.0288 27.7175C20.8581 26.0257 21.7521 24.3651 22.7088 22.7392L22.7085 22.7395C23.6648 21.1131 24.6838 19.523 25.7633 17.9726C27.6368 17.8336 29.5581 17.7612 31.4998 17.7612C33.4503 17.7612 35.3743 17.8343 37.2473 17.9743C38.3159 19.5224 39.3284 21.107 40.2828 22.7252C41.2426 24.3476 42.1484 26.0001 42.9987 27.6801C42.1571 29.3772 41.2542 31.0445 40.2917 32.6788ZM45.8436 3.21905C47.9531 4.41169 48.7736 9.22105 47.4481 15.528C47.3631 15.9306 47.2688 16.3399 47.1651 16.7558C44.5511 16.1643 41.7129 15.7246 38.7413 15.4512C37.0103 13.0349 35.2165 10.838 33.4158 8.93616C33.8878 8.49027 34.3709 8.05592 34.8648 7.63353C39.516 3.66605 43.863 2.09951 45.8436 3.21905ZM31.5 22.1403C34.6069 22.1403 37.1257 24.6092 37.1257 27.6547C37.1257 30.7002 34.6069 33.1692 31.5 33.1692C28.3931 33.1692 25.8743 30.7002 25.8743 27.6547C25.8743 24.6092 28.3931 22.1403 31.5 22.1403Z" fill="#00D8FF"/>
</g>
<defs>
<clipPath id="clip0_511_296">
<rect y="0.234863" width="63" height="55" rx="12" fill="white"/>
</clipPath>
</defs>
</svg>
