<svg width="58" height="58" viewBox="0 0 58 58" fill="none" xmlns="http://www.w3.org/2000/svg">
<path d="M9.66667 14.5001V38.6667H21.75V29.0001C21.75 27.7182 22.2592 26.4888 23.1657 25.5824C24.0721 24.676 25.3015 24.1667 26.5833 24.1667H38.6667C39.9485 24.1667 41.1779 24.676 42.0843 25.5824C42.9908 26.4888 43.5 27.7182 43.5 29.0001V38.6667H48.3333V14.5001H9.66667ZM0 48.3334V43.5001H9.66667C8.38479 43.5001 7.15541 42.9909 6.24898 42.0844C5.34256 41.178 4.83333 39.9486 4.83333 38.6667V14.5001C4.83333 13.2182 5.34256 11.9888 6.24898 11.0824C7.15541 10.176 8.38479 9.66675 9.66667 9.66675H48.3333C49.6152 9.66675 50.8446 10.176 51.751 11.0824C52.6574 11.9888 53.1667 13.2182 53.1667 14.5001V38.6667C53.1667 39.9486 52.6574 41.178 51.751 42.0844C50.8446 42.9909 49.6152 43.5001 48.3333 43.5001H58V48.3334H43.5C43.5 49.6153 42.9908 50.8447 42.0843 51.7511C41.1779 52.6575 39.9485 53.1667 38.6667 53.1667H26.5833C25.3015 53.1667 24.0721 52.6575 23.1657 51.7511C22.2592 50.8447 21.75 49.6153 21.75 48.3334H0ZM27.7917 48.3334C27.4712 48.3334 27.1639 48.4607 26.9372 48.6873C26.7106 48.9139 26.5833 49.2213 26.5833 49.5417C26.5833 49.8622 26.7106 50.1696 26.9372 50.3962C27.1639 50.6228 27.4712 50.7501 27.7917 50.7501C28.1121 50.7501 28.4195 50.6228 28.6461 50.3962C28.8727 50.1696 29 49.8622 29 49.5417C29 49.2213 28.8727 48.9139 28.6461 48.6873C28.4195 48.4607 28.1121 48.3334 27.7917 48.3334ZM37.4583 48.3334C37.1379 48.3334 36.8305 48.4607 36.6039 48.6873C36.3773 48.9139 36.25 49.2213 36.25 49.5417C36.25 49.8622 36.3773 50.1696 36.6039 50.3962C36.8305 50.6228 37.1379 50.7501 37.4583 50.7501C37.7788 50.7501 38.0861 50.6228 38.3128 50.3962C38.5394 50.1696 38.6667 49.8622 38.6667 49.5417C38.6667 49.2213 38.5394 48.9139 38.3128 48.6873C38.0861 48.4607 37.7788 48.3334 37.4583 48.3334ZM31.4167 48.3334V50.7501H33.8333V48.3334H31.4167ZM26.5833 29.0001V45.9167H38.6667V29.0001H26.5833Z" fill="#B47EFF"/>
</svg>
