<svg width="58" height="58" viewBox="0 0 58 58" fill="none" xmlns="http://www.w3.org/2000/svg">
<path fill-rule="evenodd" clip-rule="evenodd" d="M0.552246 25.4457C0.552246 25.7642 0.646043 25.9745 0.698606 26.1788C1.04117 27.5079 1.7775 28.6484 2.65112 29.6887C3.8954 31.1714 5.41926 32.3649 6.98028 33.4873C8.33421 34.4606 9.71579 35.4122 11.0752 36.3782C11.3085 36.5441 11.5292 36.7348 11.7825 36.9383C11.5645 37.0561 11.3833 37.1599 11.1948 37.2555C9.40087 38.1654 7.67492 39.1853 6.084 40.421C5.12518 41.166 4.19809 41.9576 3.54332 42.992C2.48981 44.6559 2.11689 46.4285 2.90215 48.3212C3.13143 48.8741 3.48125 49.3517 3.9747 49.7046C4.13465 49.8188 4.31409 49.9321 4.50123 49.9765C4.98064 50.0893 5.46911 50.1632 5.9544 50.2525L7.32873 50.2516C8.84851 50.1161 10.2319 49.5954 11.4821 48.7327C13.4359 47.3842 14.7523 45.5762 15.3182 43.2558C15.7297 41.5692 15.7464 39.8809 15.2616 38.2021C15.215 38.0466 15.1615 37.8933 15.1012 37.7426C15.0423 37.5917 14.9729 37.4449 14.8914 37.2568L18.0071 35.4652L18.0537 35.5051C17.9971 35.6904 17.9368 35.8753 17.8856 36.0624C17.5154 37.4145 17.2694 38.7902 17.3577 40.1935C17.452 41.6889 17.8693 43.0886 18.7448 44.3378C19.4525 45.3483 21.1391 45.3859 21.8913 44.3718C22.1582 44.0116 22.4169 43.635 22.6113 43.2331C23.1192 42.1841 23.5896 41.1166 24.0749 40.0563L24.1596 39.8623C24.1247 40.3644 24.0839 40.8053 24.0654 41.2466C24.0364 41.9358 24.0767 42.6209 24.3123 43.2766C24.5139 43.8376 24.857 44.2567 25.4995 44.3306C25.939 44.3809 26.2893 44.1797 26.6124 43.9246C27.1127 43.5289 27.5276 43.0358 27.8317 42.475C28.6931 40.8932 29.5776 39.3208 30.3584 37.6991C31.203 35.945 31.9416 34.1398 32.7259 32.3558L32.8555 32.0396C33.0409 32.7677 33.17 33.481 33.4079 34.1561C33.6843 34.9396 34.0264 35.7044 34.3989 36.448C34.5751 36.7992 34.5547 37.0271 34.3105 37.3216C33.2883 38.5541 32.2837 39.8016 31.2782 41.0477C31.0557 41.3227 30.8341 41.6028 30.6488 41.9032C30.5364 42.0929 30.4625 42.3029 30.4313 42.5212C30.4001 42.7222 30.448 42.9275 30.5648 43.094C30.6816 43.2605 30.8584 43.3753 31.058 43.4144C31.4609 43.5009 31.8739 43.5303 32.285 43.5018C33.6884 43.3985 34.9626 42.906 36.089 42.0713C37.5485 40.9901 38.0171 39.5148 37.6636 37.7662C37.568 37.2917 37.399 36.8305 37.2345 36.3733C37.1607 36.1671 37.1557 36.0225 37.2903 35.8304C38.4571 34.1643 39.4539 32.3966 40.381 30.5882C40.4177 30.5171 40.4553 30.4459 40.5197 30.3698C40.8201 31.9331 41.2723 33.4397 42.0825 34.8068C41.6693 35.2051 41.2601 35.5662 40.8899 35.9641C40.0747 36.8404 39.3678 37.792 38.999 38.9524C38.8404 39.4527 38.7185 39.9611 38.7892 40.4953C38.8989 41.325 39.5785 41.8642 40.3946 41.6753C42.141 41.2711 43.6485 40.4482 44.7501 38.9905C45.4914 38.009 45.5589 36.9143 45.2485 35.7674C45.1633 35.4557 45.0623 35.1489 44.9535 34.7914C45.3844 34.6577 45.8045 34.4973 46.239 34.3981C48.4951 33.8833 50.7268 33.973 52.9009 34.7878C54.1701 35.2635 55.1955 36.0597 55.8036 37.3121C56.5463 38.8432 56.1357 40.296 54.6925 41.2638C54.5579 41.354 54.4039 41.4251 54.2924 41.538C54.2567 41.5794 54.2301 41.6277 54.2141 41.68C54.1981 41.7323 54.1931 41.7873 54.1995 41.8416C54.209 41.8973 54.3563 41.9671 54.441 41.9662C54.9155 41.9625 55.3002 41.7138 55.6695 41.4582C56.5947 40.818 57.2699 39.9566 57.4154 38.8224L57.4439 38.7372L57.409 37.9986C57.395 37.956 57.4194 37.9139 57.4163 37.8817C57.2196 36.2301 56.3374 34.9491 55.0541 33.945C53.5679 32.7827 51.8129 32.3042 49.9569 32.2285C48.4516 32.1637 46.9483 32.3951 45.5322 32.9096C45.1257 33.0568 44.7229 33.2313 44.3142 33.3958C44.2593 33.2965 44.2004 33.2014 44.1519 33.103C43.7323 32.2439 43.2239 31.4229 43.1116 30.4378C43.0318 29.7381 42.9339 29.0394 43.1002 28.3475C43.2602 27.6819 43.4686 27.0275 43.6648 26.371C43.7659 26.0329 43.6947 25.8435 43.3721 25.6913C43.2594 25.6361 43.1395 25.5967 43.0159 25.5744C42.223 25.4593 41.4409 25.525 40.6728 25.7484C40.401 25.8277 40.2034 25.9799 40.1431 26.2808C40.1087 26.4534 40.0385 26.6188 39.9895 26.7892C39.7888 27.4974 39.6465 28.2193 39.3221 28.894C38.5092 30.5864 37.5812 32.2149 36.6314 33.8317C36.5286 34.0061 36.4203 34.1774 36.2907 34.389C35.9572 33.6912 35.6015 33.065 35.4936 32.3309C35.3717 31.5008 35.2757 30.672 35.4823 29.8483C35.6359 29.2338 35.8366 28.6307 36.0215 28.0244C36.109 27.7362 36.0686 27.5849 35.8076 27.4331C35.6758 27.3565 35.5267 27.2885 35.3781 27.2663C34.565 27.1424 33.7342 27.2104 32.952 27.4648C32.706 27.5446 32.5769 27.7036 32.5016 27.9574C32.2805 28.7059 32.092 29.4726 31.7816 30.1845C30.5247 33.0663 29.2314 35.9333 27.9396 38.7997C27.67 39.3983 27.3541 39.976 27.0501 40.5588C26.9731 40.7065 26.8607 40.8365 26.7646 40.9752C26.6876 40.8841 26.6577 40.8216 26.6581 40.759C26.6604 40.3907 26.6164 40.0114 26.6867 39.6552C26.9023 38.5781 27.1407 37.5056 27.4017 36.4385C27.6147 35.5567 27.8625 34.6831 28.0986 33.8072C28.1779 33.514 28.1793 33.2399 27.9686 32.9934C27.6147 32.5806 26.8752 32.49 26.4366 32.8081L26.2426 32.9177L26.2802 32.6051C26.3727 31.9349 26.3912 31.267 26.2073 30.6068C25.978 29.7839 25.3907 29.3104 24.5371 29.3367C24.1392 29.3489 23.7214 29.4169 23.353 29.5619C21.8038 30.1691 20.6125 31.2443 19.5984 32.538C19.5044 32.6581 19.3879 32.7587 19.2554 32.8343C17.9445 33.5612 16.6296 34.2789 15.3151 34.9994L13.8519 35.801C13.4595 35.4267 13.1029 35.0383 12.6983 34.7089C11.4626 33.7012 10.207 32.7183 8.9627 31.7219C7.85979 30.8388 6.79132 29.9189 5.97389 28.7494C5.36579 27.8794 4.97384 26.9274 4.93623 25.8517C4.88865 24.481 5.27743 23.2285 5.97525 22.0627C6.8679 20.571 8.08545 19.3738 9.42398 18.2895C10.84 17.1431 12.3716 16.1698 13.9589 15.2812C16.1796 14.0383 18.4638 12.9381 20.913 12.2117C23.4242 11.4668 25.9721 11.0404 28.6002 11.3376C29.6334 11.4545 30.6366 11.6911 31.5578 12.1963C32.2633 12.5828 32.8419 13.089 33.1111 13.8801C33.3766 14.6586 33.3685 15.4475 33.1845 16.2382C32.8107 17.8395 31.9339 19.1595 30.8305 20.339C29.0207 22.2725 26.8131 23.5888 24.3277 24.4583C22.8987 24.9588 21.4119 25.276 19.9029 25.4022C18.6664 25.506 17.4556 25.3963 16.2847 24.9663C15.5094 24.6813 14.8343 24.2454 14.2914 23.6128C14.1945 23.4995 14.0703 23.3767 13.8895 23.4828C13.7124 23.587 13.6811 23.7555 13.7404 23.9264C13.8397 24.21 13.9312 24.5055 14.0857 24.7592C14.4741 25.3958 15.0405 25.8576 15.664 26.2536C16.8616 27.0153 18.2001 27.2713 19.588 27.3307C21.6942 27.4218 23.7491 27.1073 25.775 26.5423C28.6673 25.7357 31.1821 24.3111 33.199 22.0636C34.8783 20.1922 36.0777 18.0801 36.3346 15.53C36.4601 14.2852 36.3265 13.0659 35.7437 11.9303C35.1116 10.7001 34.1066 9.78523 32.9049 9.15494C31.1549 8.23736 29.2663 7.70312 27.317 7.70312H25.364C23.0032 7.70312 20.7208 8.37964 18.5023 9.18666C16.8231 9.79792 15.1764 10.5193 13.5778 11.3177C10.0964 13.0572 6.85431 15.1548 4.19129 18.0389C2.86454 19.4758 1.74125 21.0612 1.09509 22.9281C0.900402 23.4856 0.732404 24.0521 0.591668 24.6255M13.2062 40.9439C13.0553 42.9644 12.1396 44.6025 10.6429 45.9292C9.80098 46.675 8.83537 47.2061 7.71071 47.3928C7.3029 47.4603 6.88557 47.4766 6.49 47.3076C5.92586 47.0665 5.79943 46.5658 5.78856 46.0325C5.77179 45.1825 6.0695 44.414 6.47776 43.6826C7.01064 42.7292 7.79182 42.0024 8.62603 41.3236C9.94009 40.2538 11.3656 39.3485 12.8256 38.4939L12.9357 38.4486C13.1614 39.2823 13.2687 40.1056 13.2062 40.9439ZM24.6059 32.1628C24.4994 32.8081 24.3662 33.4538 24.1777 34.0791C23.5261 36.2437 22.6892 38.3412 21.7843 40.4106C21.6171 40.7935 21.3738 41.1428 21.1622 41.5058C21.1261 41.5616 21.083 41.6124 21.0339 41.6571C20.772 41.9159 20.5237 41.9023 20.3914 41.5638C20.2374 41.1705 20.1427 40.7495 20.0611 40.3331C20.0063 40.0535 20.0194 39.7599 20.0022 39.4735C20.0199 37.4372 20.6411 35.5866 21.6951 33.8638C22.1296 33.1533 22.6027 32.4764 23.3254 32.0269C23.5503 31.8872 23.7936 31.7796 24.0481 31.707C24.4333 31.5987 24.6698 31.7768 24.6059 32.1628ZM32.3834 42.0717L35.1787 38.8079C35.2952 40.02 33.2348 42.4397 32.3834 42.0717ZM41.3113 39.8755C41.1137 39.9887 40.8985 40.0703 40.6959 40.175C40.5106 40.271 40.4494 40.1741 40.444 40.0146C40.4414 39.9042 40.4556 39.794 40.4862 39.6879C40.8636 38.3566 41.5582 37.2201 42.5918 36.2958L42.6643 36.2586C43.156 37.6338 42.5877 39.1441 41.3113 39.8755Z" fill="#CB6699"/>
</svg>
