<svg width="66" height="66" viewBox="0 0 66 66" fill="none" xmlns="http://www.w3.org/2000/svg">
<g clip-path="url(#clip0_511_292)">
<path d="M32.7218 13.3411C24.108 13.3411 18.7264 17.6462 16.5713 26.2599C19.8004 21.9543 23.57 20.3398 27.8756 21.4163C30.334 22.029 32.0909 23.8116 34.0365 25.787C37.203 29.0004 40.8682 32.7206 48.8722 32.7206C57.4855 32.7206 62.8676 28.415 65.0227 19.7992C61.7926 24.107 58.0243 25.7224 53.7179 24.6454C51.26 24.0322 49.5051 22.2501 47.557 20.2747C44.3925 17.0612 40.7284 13.3411 32.7218 13.3411ZM16.5713 32.7206C7.95811 32.7206 2.57597 37.0262 0.420898 45.642C3.65065 41.3342 7.41875 39.7188 11.7252 40.7958C14.1836 41.409 15.9405 43.1911 17.8861 45.1665C21.0526 48.38 24.7177 52.1001 32.7218 52.1001C41.335 52.1001 46.7172 47.795 48.8722 39.1813C45.6421 43.4871 41.8739 45.1016 37.5674 44.0249C35.1095 43.4122 33.3547 41.6296 31.4065 39.6542C28.2421 36.4407 24.5779 32.7206 16.5713 32.7206Z" fill="#38BDF8"/>
</g>
<defs>
<clipPath id="clip0_511_292">
<rect x="0.418945" y="0.419678" width="64.6018" height="64.6018" rx="12" fill="white"/>
</clipPath>
</defs>
</svg>
