<svg width="16" height="16" viewBox="0 0 16 16" fill="none" xmlns="http://www.w3.org/2000/svg">
<path d="M7.99992 6.66658C8.70716 6.66658 9.38544 6.38563 9.88554 5.88554C10.3856 5.38544 10.6666 4.70716 10.6666 3.99992C10.6666 3.29267 10.3856 2.6144 9.88554 2.1143C9.38544 1.6142 8.70716 1.33325 7.99992 1.33325C7.29267 1.33325 6.6144 1.6142 6.1143 2.1143C5.6142 2.6144 5.33325 3.29267 5.33325 3.99992C5.33325 4.70716 5.6142 5.38544 6.1143 5.88554C6.6144 6.38563 7.29267 6.66658 7.99992 6.66658ZM3.66659 8.66658C4.10861 8.66658 4.53254 8.49099 4.8451 8.17843C5.15766 7.86587 5.33325 7.44195 5.33325 6.99992C5.33325 6.55789 5.15766 6.13397 4.8451 5.82141C4.53254 5.50885 4.10861 5.33325 3.66659 5.33325C3.22456 5.33325 2.80063 5.50885 2.48807 5.82141C2.17551 6.13397 1.99992 6.55789 1.99992 6.99992C1.99992 7.44195 2.17551 7.86587 2.48807 8.17843C2.80063 8.49099 3.22456 8.66658 3.66659 8.66658ZM13.9999 6.99992C13.9999 7.44195 13.8243 7.86587 13.5118 8.17843C13.1992 8.49099 12.7753 8.66658 12.3333 8.66658C11.8912 8.66658 11.4673 8.49099 11.1547 8.17843C10.8422 7.86587 10.6666 7.44195 10.6666 6.99992C10.6666 6.55789 10.8422 6.13397 11.1547 5.82141C11.4673 5.50885 11.8912 5.33325 12.3333 5.33325C12.7753 5.33325 13.1992 5.50885 13.5118 5.82141C13.8243 6.13397 13.9999 6.55789 13.9999 6.99992ZM7.99992 7.33325C8.88397 7.33325 9.73182 7.68444 10.3569 8.30956C10.9821 8.93468 11.3333 9.78253 11.3333 10.6666V14.6666H4.66659V10.6666C4.66659 9.78253 5.01777 8.93468 5.6429 8.30956C6.26802 7.68444 7.11586 7.33325 7.99992 7.33325ZM3.33325 10.6666C3.33325 10.2046 3.39992 9.75858 3.52525 9.33725L3.41192 9.34659C2.8405 9.40933 2.31236 9.68079 1.92876 10.1089C1.54516 10.5371 1.3331 11.0917 1.33325 11.6666V14.6666H3.33325V10.6666ZM14.6666 14.6666V11.6666C14.6667 11.0722 14.4399 10.5001 14.0325 10.0672C13.6251 9.63435 13.0679 9.37326 12.4746 9.33725C12.5993 9.75858 12.6666 10.2046 12.6666 10.6666V14.6666H14.6666Z" fill="white" fill-opacity="0.9"/>
</svg>
