<svg width="58" height="59" viewBox="0 0 58 59" fill="none" xmlns="http://www.w3.org/2000/svg">
<g clip-path="url(#clip0_511_298)">
<path d="M10.2725 21.5317H55.4354V54.9135H10.2725V21.5317Z" fill="white"/>
<path d="M0.679688 29.1941V57.5144H57.3203V0.873779H0.679688V29.1941ZM46.323 26.9285C47.6796 27.2433 48.9126 27.9528 49.8664 28.9675C50.3914 29.5143 50.8479 30.1229 51.2258 30.78C51.2258 30.8525 48.7789 32.5064 47.2881 33.4308C47.2337 33.4671 47.0163 33.2314 46.7761 32.8735C46.504 32.4039 46.1173 32.0109 45.6521 31.7312C45.187 31.4515 44.6586 31.2942 44.1162 31.2739C42.3989 31.1561 41.2933 32.0578 41.3023 33.5396C41.2886 33.9084 41.373 34.2743 41.547 34.5999C41.9231 35.3838 42.6255 35.8505 44.8277 36.8021C48.8831 38.5466 50.6186 39.6975 51.697 41.3333C52.9023 43.1458 53.1697 46.073 52.3541 48.2389C51.4478 50.5952 49.2275 52.1947 46.0873 52.7249C44.6531 52.8892 43.204 52.874 41.7736 52.6796C39.5812 52.3182 37.5617 51.2656 36.0098 49.6753C35.4888 49.0999 34.4738 47.6 34.5372 47.4913C34.7023 47.368 34.8765 47.2574 35.0583 47.1605L37.1562 46.0005L38.783 45.058L39.1228 45.561C39.6965 46.3812 40.4264 47.0803 41.2706 47.6181C43.0831 48.5697 45.5572 48.4383 46.7806 47.3372C47.1914 46.9337 47.4477 46.399 47.5048 45.826C47.5619 45.2531 47.4163 44.6782 47.0933 44.2016C46.6402 43.5717 45.7339 43.0416 43.2009 41.936C40.2783 40.6763 39.0186 39.8969 37.8677 38.6553C37.1494 37.8359 36.6189 36.8693 36.3134 35.8233C36.0858 34.6282 36.0521 33.4042 36.2137 32.1983C36.8164 29.3753 38.9325 27.4042 42.0228 26.8197C43.454 26.6429 44.9036 26.6826 46.323 26.9375V26.9285ZM33.0283 29.3028V31.6228H25.6741V52.5708H20.4586V31.6183H13.0862V29.3527C13.0631 28.5714 13.0813 27.7894 13.1406 27.01C13.1769 26.9692 17.6719 26.9692 23.1094 26.9692H33.0011L33.0283 29.3028Z" fill="#007ACC"/>
</g>
<defs>
<clipPath id="clip0_511_298">
<rect width="58" height="58" fill="white" transform="translate(0 0.234863)"/>
</clipPath>
</defs>
</svg>
